<?xml version="1.0" standalone="no"?>
<!DOCTYPE svg PUBLIC "-//W3C//DTD SVG 20010904//EN"
 "http://www.w3.org/TR/2001/REC-SVG-20010904/DTD/svg10.dtd">
<svg version="1.0" xmlns="http://www.w3.org/2000/svg"
 width="288.000000pt" height="288.000000pt" viewBox="0 0 288.000000 288.000000"
 preserveAspectRatio="xMidYMid meet">
<metadata>
Created by potrace 1.16, written by Peter Selinger 2001-2019
</metadata>
<g transform="translate(0.000000,288.000000) scale(0.100000,-0.100000)"
fill="#000000" stroke="none">
<path d="M1953 2568 c-31 -36 -55 -75 -58 -92 -5 -33 -21 -554 -31 -1037 -7
-278 -6 -298 12 -327 27 -47 51 -41 111 27 53 60 120 101 164 101 13 0 38 9
54 20 38 25 48 25 33 1 -10 -16 -9 -23 5 -39 25 -27 21 -32 -15 -21 -57 16
-69 11 -145 -69 -99 -103 -113 -120 -113 -148 0 -18 5 -24 23 -24 13 0 28 5
34 11 8 8 16 7 30 -2 16 -9 30 -9 66 -1 25 7 73 12 107 12 33 0 76 7 95 14 31
13 35 19 35 53 0 46 -14 63 -51 63 -51 0 -59 7 -42 41 l15 29 25 -20 c47 -37
53 -29 53 76 l0 96 -47 -26 c-25 -15 -48 -24 -50 -22 -6 6 73 56 87 56 5 0 10
22 10 49 0 45 -2 49 -32 62 -76 31 -175 -2 -269 -92 -29 -27 -54 -47 -57 -44
-11 11 89 101 146 132 77 41 117 48 170 30 l42 -15 0 584 0 584 -177 0 -178 0
-52 -62z"/>
<path d="M446 2563 c-3 -8 -6 -248 -6 -534 l0 -519 43 -1 c51 -1 86 -12 69
-23 -6 -4 -34 -10 -62 -13 l-50 -6 0 -308 c0 -170 2 -309 4 -309 3 0 17 24 31
53 15 28 33 59 41 68 8 8 14 20 14 26 0 14 39 47 47 40 3 -4 -2 -17 -13 -30
-17 -19 -52 -78 -76 -129 -4 -10 -12 -26 -17 -37 -5 -10 -13 -36 -16 -57 -4
-22 -9 -47 -12 -56 -4 -16 6 -18 110 -18 l114 0 13 28 c39 83 69 137 78 140 6
2 0 -18 -13 -45 -14 -26 -25 -53 -25 -59 0 -6 -6 -17 -14 -24 -8 -6 -12 -18
-9 -26 4 -11 35 -14 158 -14 151 0 154 0 210 30 58 30 95 38 95 20 0 -5 -11
-10 -24 -10 -14 0 -28 -4 -31 -10 -3 -5 -15 -10 -25 -10 -10 0 -21 -4 -25 -9
-3 -6 82 -10 222 -10 l228 -1 -29 25 c-22 19 -40 25 -76 25 -33 0 -55 6 -74
21 -21 16 -26 17 -26 5 0 -8 -10 -18 -22 -22 -13 -3 -30 -12 -38 -19 -13 -11
-18 -9 -33 11 -18 25 -18 25 13 35 26 9 31 16 28 38 -3 23 1 26 30 29 19 2 48
12 65 23 40 24 49 24 46 2 -7 -48 35 -94 98 -107 43 -10 73 8 73 42 0 16 -22
72 -49 125 -27 53 -54 110 -59 126 -12 35 -93 81 -141 81 -37 0 -49 16 -18 24
12 3 57 -6 104 -21 66 -21 85 -24 97 -14 12 10 12 17 2 42 -7 16 -21 35 -32
43 -35 24 -112 38 -181 34 -55 -3 -78 -9 -115 -33 -51 -32 -63 -58 -25 -53 42
6 28 -17 -16 -23 -63 -10 -106 -35 -156 -91 -84 -95 -130 -183 -167 -326 -2
-6 -8 -12 -14 -12 -13 0 -13 37 0 45 6 3 10 13 10 21 0 8 9 33 19 57 38 85 32
115 -16 78 -33 -27 -44 -18 -15 12 12 12 34 37 48 55 23 28 106 100 252 219
15 11 47 32 72 46 26 15 45 32 45 42 0 10 11 22 23 26 18 7 22 14 17 29 -8 26
-5 25 57 -6 47 -24 57 -25 99 -16 25 6 54 9 65 7 64 -13 74 -16 74 -24 0 -5
-8 -11 -17 -14 -13 -3 -8 -8 19 -20 42 -19 52 -21 44 -8 -3 5 2 8 11 7 10 0
19 8 21 19 7 36 20 39 54 13 18 -13 41 -28 52 -31 18 -7 18 4 13 380 -6 401
-21 599 -52 693 -27 82 -34 84 -325 76 -410 -12 -678 27 -857 123 -42 23 -53
26 -57 14z m653 -892 c20 -13 4 -18 -79 -26 -41 -4 -79 -11 -85 -15 -5 -4 -24
-11 -41 -14 -50 -11 -124 -62 -124 -86 0 -16 7 -20 33 -20 35 0 66 -15 54 -26
-3 -4 -48 -7 -99 -7 -77 1 -94 3 -96 17 -2 10 3 16 15 16 10 0 29 10 43 21 68
55 181 119 211 119 10 0 21 5 25 11 4 7 24 9 49 6 24 -2 49 -1 57 4 16 11 20
11 37 0z"/>
<path d="M2280 951 c-14 -5 -40 -15 -57 -24 -41 -21 -43 -21 -43 3 0 25 -32
27 -84 5 -64 -27 -98 -116 -58 -150 9 -8 20 -15 24 -16 4 0 20 -6 35 -14 14
-8 31 -11 36 -8 5 3 6 -4 2 -16 -6 -21 -4 -21 109 -21 l116 0 0 119 c0 115 -1
119 -22 125 -26 7 -25 7 -58 -3z"/>
<path d="M506 662 c-6 -9 -56 -312 -56 -337 0 -11 12 -15 40 -15 38 0 40 2 40
29 0 39 9 61 25 61 13 0 25 -30 25 -67 0 -20 5 -23 40 -23 48 0 47 -15 12 195
l-28 160 -46 3 c-25 2 -49 -1 -52 -6z"/>
<path d="M930 668 c0 -2 -1 -83 -3 -181 l-2 -177 73 0 c65 0 72 2 72 19 0 15
-8 21 -32 23 l-33 3 -3 158 -3 157 -34 0 c-19 0 -35 -1 -35 -2z"/>
<path d="M1337 664 c-4 -4 -7 -85 -7 -181 l0 -173 75 0 c68 0 75 2 75 20 0 16
-7 20 -35 20 l-34 0 -3 158 -3 157 -30 3 c-17 2 -34 0 -38 -4z"/>
<path d="M1750 658 c-25 -13 -25 -16 -28 -153 -1 -77 0 -150 3 -162 8 -32 70
-49 119 -33 51 17 58 42 54 192 -2 102 -6 131 -19 144 -22 22 -97 28 -129 12z"/>
<path d="M2150 657 c0 -8 14 -58 30 -112 21 -68 30 -118 30 -166 l0 -69 40 0
40 0 0 74 c0 59 7 93 35 170 19 53 35 102 35 107 0 6 -15 9 -32 7 -30 -3 -35
-8 -54 -62 l-21 -59 -19 59 c-18 55 -21 59 -51 62 -24 2 -33 -1 -33 -11z"/>
</g>
</svg>
