<?xml version="1.0" standalone="no"?>
<!DOCTYPE svg PUBLIC "-//W3C//DTD SVG 20010904//EN"
 "http://www.w3.org/TR/2001/REC-SVG-20010904/DTD/svg10.dtd">
<svg version="1.0" xmlns="http://www.w3.org/2000/svg"
 width="112.000000pt" height="180.000000pt" viewBox="0 0 112.000000 180.000000"
 preserveAspectRatio="xMidYMid meet">
<metadata>
Created by potrace 1.16, written by Peter Selinger 2001-2019
</metadata>
<g transform="translate(0.000000,180.000000) scale(0.100000,-0.100000)"
fill="#000000" stroke="none">
<path d="M199 1776 c-77 -31 -116 -61 -150 -115 -43 -67 -54 -115 -39 -178 14
-63 68 -128 123 -147 l38 -13 -36 -32 c-42 -37 -42 -44 2 -32 36 10 48 5 58
-29 4 -14 22 -45 39 -69 29 -40 31 -49 31 -130 0 -167 -46 -252 -183 -333 -45
-28 -82 -55 -82 -62 0 -21 42 -52 130 -96 128 -63 170 -110 170 -190 0 -55
-19 -94 -79 -165 -50 -58 -51 -61 -51 -122 l0 -63 220 0 220 0 0 61 c0 55 -4
68 -40 121 -49 74 -54 133 -16 215 22 46 23 52 8 55 -12 3 -8 9 16 22 33 17
34 17 28 -1 -6 -18 -2 -19 65 -12 39 5 87 13 107 20 98 31 235 147 281 236 11
23 30 77 42 119 68 248 -53 444 -276 448 -86 1 -130 -18 -197 -87 -67 -68 -96
-121 -122 -228 -12 -51 -27 -94 -33 -96 -24 -8 -61 223 -65 404 -3 114 4 129
17 38 7 -49 19 -75 36 -75 21 0 83 69 111 124 40 78 50 191 23 261 -54 142
-243 214 -396 151z"/>
</g>
</svg>
